<svg xmlns="http://www.w3.org/2000/svg" viewBox="0 0 700 220" width="700" height="220">
  <rect width="700" height="220" fill="white"/>
  <text x="350" y="20" text-anchor="middle" font-size="13" font-weight="600" fill="#222" font-family="sans-serif">Bell state — H(0) + CNOT(0, n−1)</text>
  <rect x="48" y="32" width="311" height="156" fill="#f8f9fa" rx="2"/>
  <line x1="48" y1="194.5" x2="359" y2="194.5" stroke="#e8e8e8" stroke-width="1"/>
  <line x1="48" y1="65.2" x2="359" y2="65.2" stroke="#e8e8e8" stroke-width="1"/>
  <line x1="48" y1="32" x2="48" y2="188" stroke="#bbb" stroke-width="1"/>
  <line x1="48" y1="188" x2="359" y2="188" stroke="#bbb" stroke-width="1"/>
  <text x="48.0" y="201" text-anchor="middle" font-size="8" fill="#999" font-family="monospace">2</text>
  <text x="82.6" y="201" text-anchor="middle" font-size="8" fill="#999" font-family="monospace">4</text>
  <text x="117.1" y="201" text-anchor="middle" font-size="8" fill="#999" font-family="monospace">6</text>
  <text x="151.7" y="201" text-anchor="middle" font-size="8" fill="#999" font-family="monospace">8</text>
  <text x="186.2" y="201" text-anchor="middle" font-size="8" fill="#999" font-family="monospace">10</text>
  <text x="220.8" y="201" text-anchor="middle" font-size="8" fill="#999" font-family="monospace">12</text>
  <text x="255.3" y="201" text-anchor="middle" font-size="8" fill="#999" font-family="monospace">14</text>
  <text x="289.9" y="201" text-anchor="middle" font-size="8" fill="#999" font-family="monospace">16</text>
  <text x="324.4" y="201" text-anchor="middle" font-size="8" fill="#999" font-family="monospace">18</text>
  <text x="359.0" y="201" text-anchor="middle" font-size="8" fill="#999" font-family="monospace">20</text>
  <text x="44" y="197.5" text-anchor="end" font-size="8" fill="#999" font-family="monospace">1µs</text>
  <text x="44" y="68.2" text-anchor="end" font-size="8" fill="#999" font-family="monospace">10µs</text>
  <text transform="translate(14,110) rotate(-90)" text-anchor="middle" font-size="9" fill="#666" font-family="sans-serif">time</text>
  <text x="204" y="213" text-anchor="middle" font-size="9" fill="#666" font-family="sans-serif">qubits</text>
  <path d="M48.0,32.0 L65.3,137.6 L82.6,158.6 L99.8,170.1 L117.1,170.1 L134.4,172.8 L151.7,173.1 L168.9,169.4 L186.2,132.7 L203.5,145.9 L220.8,173.5 L238.1,181.4 L255.3,185.6 L272.6,188.0 L289.9,185.6 L307.2,185.1 L324.4,184.1 L341.7,188.0 L359.0,188.0" fill="none" stroke="#4f86f7" stroke-width="2" stroke-linejoin="round" stroke-linecap="round"/>
  <circle cx="48.0" cy="32.0" r="2.5" fill="#4f86f7" stroke="white" stroke-width="1"/>
  <circle cx="65.3" cy="137.6" r="2.5" fill="#4f86f7" stroke="white" stroke-width="1"/>
  <circle cx="82.6" cy="158.6" r="2.5" fill="#4f86f7" stroke="white" stroke-width="1"/>
  <circle cx="99.8" cy="170.1" r="2.5" fill="#4f86f7" stroke="white" stroke-width="1"/>
  <circle cx="117.1" cy="170.1" r="2.5" fill="#4f86f7" stroke="white" stroke-width="1"/>
  <circle cx="134.4" cy="172.8" r="2.5" fill="#4f86f7" stroke="white" stroke-width="1"/>
  <circle cx="151.7" cy="173.1" r="2.5" fill="#4f86f7" stroke="white" stroke-width="1"/>
  <circle cx="168.9" cy="169.4" r="2.5" fill="#4f86f7" stroke="white" stroke-width="1"/>
  <circle cx="186.2" cy="132.7" r="2.5" fill="#4f86f7" stroke="white" stroke-width="1"/>
  <circle cx="203.5" cy="145.9" r="2.5" fill="#4f86f7" stroke="white" stroke-width="1"/>
  <circle cx="220.8" cy="173.5" r="2.5" fill="#4f86f7" stroke="white" stroke-width="1"/>
  <circle cx="238.1" cy="181.4" r="2.5" fill="#4f86f7" stroke="white" stroke-width="1"/>
  <circle cx="255.3" cy="185.6" r="2.5" fill="#4f86f7" stroke="white" stroke-width="1"/>
  <circle cx="272.6" cy="188.0" r="2.5" fill="#4f86f7" stroke="white" stroke-width="1"/>
  <circle cx="289.9" cy="185.6" r="2.5" fill="#4f86f7" stroke="white" stroke-width="1"/>
  <circle cx="307.2" cy="185.1" r="2.5" fill="#4f86f7" stroke="white" stroke-width="1"/>
  <circle cx="324.4" cy="184.1" r="2.5" fill="#4f86f7" stroke="white" stroke-width="1"/>
  <circle cx="341.7" cy="188.0" r="2.5" fill="#4f86f7" stroke="white" stroke-width="1"/>
  <circle cx="359.0" cy="188.0" r="2.5" fill="#4f86f7" stroke="white" stroke-width="1"/>
  <rect x="379" y="32" width="311" height="156" fill="#f8f9fa" rx="2"/>
  <line x1="379" y1="144.0" x2="690" y2="144.0" stroke="#e8e8e8" stroke-width="1"/>
  <line x1="379" y1="14.5" x2="690" y2="14.5" stroke="#e8e8e8" stroke-width="1"/>
  <line x1="379" y1="32" x2="379" y2="188" stroke="#bbb" stroke-width="1"/>
  <line x1="379" y1="188" x2="690" y2="188" stroke="#bbb" stroke-width="1"/>
  <text x="379.0" y="201" text-anchor="middle" font-size="8" fill="#999" font-family="monospace">2</text>
  <text x="413.6" y="201" text-anchor="middle" font-size="8" fill="#999" font-family="monospace">4</text>
  <text x="448.1" y="201" text-anchor="middle" font-size="8" fill="#999" font-family="monospace">6</text>
  <text x="482.7" y="201" text-anchor="middle" font-size="8" fill="#999" font-family="monospace">8</text>
  <text x="517.2" y="201" text-anchor="middle" font-size="8" fill="#999" font-family="monospace">10</text>
  <text x="551.8" y="201" text-anchor="middle" font-size="8" fill="#999" font-family="monospace">12</text>
  <text x="586.3" y="201" text-anchor="middle" font-size="8" fill="#999" font-family="monospace">14</text>
  <text x="620.9" y="201" text-anchor="middle" font-size="8" fill="#999" font-family="monospace">16</text>
  <text x="655.4" y="201" text-anchor="middle" font-size="8" fill="#999" font-family="monospace">18</text>
  <text x="690.0" y="201" text-anchor="middle" font-size="8" fill="#999" font-family="monospace">20</text>
  <text x="375" y="147.0" text-anchor="end" font-size="8" fill="#999" font-family="monospace">105B</text>
  <text x="375" y="17.5" text-anchor="end" font-size="8" fill="#999" font-family="monospace">1KB</text>
  <text transform="translate(345,110) rotate(-90)" text-anchor="middle" font-size="9" fill="#666" font-family="sans-serif">memory</text>
  <text x="535" y="213" text-anchor="middle" font-size="9" fill="#666" font-family="sans-serif">qubits</text>
  <path d="M379.0,110.0 L396.3,110.0 L413.6,110.0 L430.8,110.0 L448.1,110.0 L465.4,110.0 L482.7,110.0 L499.9,110.0 L517.2,110.0 L534.5,110.0 L551.8,110.0 L569.1,110.0 L586.3,110.0 L603.6,110.0 L620.9,110.0 L638.2,110.0 L655.4,110.0 L672.7,110.0 L690.0,110.0" fill="none" stroke="#e05c5c" stroke-width="2" stroke-linejoin="round" stroke-linecap="round"/>
  <circle cx="379.0" cy="110.0" r="2.5" fill="#e05c5c" stroke="white" stroke-width="1"/>
  <circle cx="396.3" cy="110.0" r="2.5" fill="#e05c5c" stroke="white" stroke-width="1"/>
  <circle cx="413.6" cy="110.0" r="2.5" fill="#e05c5c" stroke="white" stroke-width="1"/>
  <circle cx="430.8" cy="110.0" r="2.5" fill="#e05c5c" stroke="white" stroke-width="1"/>
  <circle cx="448.1" cy="110.0" r="2.5" fill="#e05c5c" stroke="white" stroke-width="1"/>
  <circle cx="465.4" cy="110.0" r="2.5" fill="#e05c5c" stroke="white" stroke-width="1"/>
  <circle cx="482.7" cy="110.0" r="2.5" fill="#e05c5c" stroke="white" stroke-width="1"/>
  <circle cx="499.9" cy="110.0" r="2.5" fill="#e05c5c" stroke="white" stroke-width="1"/>
  <circle cx="517.2" cy="110.0" r="2.5" fill="#e05c5c" stroke="white" stroke-width="1"/>
  <circle cx="534.5" cy="110.0" r="2.5" fill="#e05c5c" stroke="white" stroke-width="1"/>
  <circle cx="551.8" cy="110.0" r="2.5" fill="#e05c5c" stroke="white" stroke-width="1"/>
  <circle cx="569.1" cy="110.0" r="2.5" fill="#e05c5c" stroke="white" stroke-width="1"/>
  <circle cx="586.3" cy="110.0" r="2.5" fill="#e05c5c" stroke="white" stroke-width="1"/>
  <circle cx="603.6" cy="110.0" r="2.5" fill="#e05c5c" stroke="white" stroke-width="1"/>
  <circle cx="620.9" cy="110.0" r="2.5" fill="#e05c5c" stroke="white" stroke-width="1"/>
  <circle cx="638.2" cy="110.0" r="2.5" fill="#e05c5c" stroke="white" stroke-width="1"/>
  <circle cx="655.4" cy="110.0" r="2.5" fill="#e05c5c" stroke="white" stroke-width="1"/>
  <circle cx="672.7" cy="110.0" r="2.5" fill="#e05c5c" stroke="white" stroke-width="1"/>
  <circle cx="690.0" cy="110.0" r="2.5" fill="#e05c5c" stroke="white" stroke-width="1"/>
</svg>