<svg xmlns="http://www.w3.org/2000/svg" viewBox="0 0 700 220" width="700" height="220">
  <rect width="700" height="220" fill="white"/>
  <text x="350" y="20" text-anchor="middle" font-size="13" font-weight="600" fill="#222" font-family="sans-serif">Quantum Fourier Transform (QFT)</text>
  <rect x="48" y="32" width="311" height="156" fill="#f8f9fa" rx="2"/>
  <line x1="48" y1="184.8" x2="359" y2="184.8" stroke="#e8e8e8" stroke-width="1"/>
  <line x1="48" y1="158.2" x2="359" y2="158.2" stroke="#e8e8e8" stroke-width="1"/>
  <line x1="48" y1="131.6" x2="359" y2="131.6" stroke="#e8e8e8" stroke-width="1"/>
  <line x1="48" y1="105.0" x2="359" y2="105.0" stroke="#e8e8e8" stroke-width="1"/>
  <line x1="48" y1="78.4" x2="359" y2="78.4" stroke="#e8e8e8" stroke-width="1"/>
  <line x1="48" y1="51.8" x2="359" y2="51.8" stroke="#e8e8e8" stroke-width="1"/>
  <line x1="48" y1="25.2" x2="359" y2="25.2" stroke="#e8e8e8" stroke-width="1"/>
  <line x1="48" y1="32" x2="48" y2="188" stroke="#bbb" stroke-width="1"/>
  <line x1="48" y1="188" x2="359" y2="188" stroke="#bbb" stroke-width="1"/>
  <text x="48.0" y="201" text-anchor="middle" font-size="8" fill="#999" font-family="monospace">2</text>
  <text x="82.6" y="201" text-anchor="middle" font-size="8" fill="#999" font-family="monospace">4</text>
  <text x="117.1" y="201" text-anchor="middle" font-size="8" fill="#999" font-family="monospace">6</text>
  <text x="151.7" y="201" text-anchor="middle" font-size="8" fill="#999" font-family="monospace">8</text>
  <text x="186.2" y="201" text-anchor="middle" font-size="8" fill="#999" font-family="monospace">10</text>
  <text x="220.8" y="201" text-anchor="middle" font-size="8" fill="#999" font-family="monospace">12</text>
  <text x="255.3" y="201" text-anchor="middle" font-size="8" fill="#999" font-family="monospace">14</text>
  <text x="289.9" y="201" text-anchor="middle" font-size="8" fill="#999" font-family="monospace">16</text>
  <text x="324.4" y="201" text-anchor="middle" font-size="8" fill="#999" font-family="monospace">18</text>
  <text x="359.0" y="201" text-anchor="middle" font-size="8" fill="#999" font-family="monospace">20</text>
  <text x="44" y="187.8" text-anchor="end" font-size="8" fill="#999" font-family="monospace">10µs</text>
  <text x="44" y="161.2" text-anchor="end" font-size="8" fill="#999" font-family="monospace">100µs</text>
  <text x="44" y="134.6" text-anchor="end" font-size="8" fill="#999" font-family="monospace">1.0ms</text>
  <text x="44" y="108.0" text-anchor="end" font-size="8" fill="#999" font-family="monospace">10ms</text>
  <text x="44" y="81.4" text-anchor="end" font-size="8" fill="#999" font-family="monospace">100ms</text>
  <text x="44" y="54.8" text-anchor="end" font-size="8" fill="#999" font-family="monospace">1.0s</text>
  <text x="44" y="28.2" text-anchor="end" font-size="8" fill="#999" font-family="monospace">10.0s</text>
  <text transform="translate(14,110) rotate(-90)" text-anchor="middle" font-size="9" fill="#666" font-family="sans-serif">time</text>
  <text x="204" y="213" text-anchor="middle" font-size="9" fill="#666" font-family="sans-serif">qubits</text>
  <path d="M48.0,172.6 L65.3,188.0 L82.6,182.7 L99.8,175.3 L117.1,167.3 L134.4,159.4 L151.7,150.3 L168.9,142.2 L186.2,132.8 L203.5,124.4 L220.8,107.7 L238.1,103.8 L255.3,93.0 L272.6,83.5 L289.9,73.0 L307.2,63.5 L324.4,52.1 L341.7,41.6 L359.0,32.0" fill="none" stroke="#4f86f7" stroke-width="2" stroke-linejoin="round" stroke-linecap="round"/>
  <circle cx="48.0" cy="172.6" r="2.5" fill="#4f86f7" stroke="white" stroke-width="1"/>
  <circle cx="65.3" cy="188.0" r="2.5" fill="#4f86f7" stroke="white" stroke-width="1"/>
  <circle cx="82.6" cy="182.7" r="2.5" fill="#4f86f7" stroke="white" stroke-width="1"/>
  <circle cx="99.8" cy="175.3" r="2.5" fill="#4f86f7" stroke="white" stroke-width="1"/>
  <circle cx="117.1" cy="167.3" r="2.5" fill="#4f86f7" stroke="white" stroke-width="1"/>
  <circle cx="134.4" cy="159.4" r="2.5" fill="#4f86f7" stroke="white" stroke-width="1"/>
  <circle cx="151.7" cy="150.3" r="2.5" fill="#4f86f7" stroke="white" stroke-width="1"/>
  <circle cx="168.9" cy="142.2" r="2.5" fill="#4f86f7" stroke="white" stroke-width="1"/>
  <circle cx="186.2" cy="132.8" r="2.5" fill="#4f86f7" stroke="white" stroke-width="1"/>
  <circle cx="203.5" cy="124.4" r="2.5" fill="#4f86f7" stroke="white" stroke-width="1"/>
  <circle cx="220.8" cy="107.7" r="2.5" fill="#4f86f7" stroke="white" stroke-width="1"/>
  <circle cx="238.1" cy="103.8" r="2.5" fill="#4f86f7" stroke="white" stroke-width="1"/>
  <circle cx="255.3" cy="93.0" r="2.5" fill="#4f86f7" stroke="white" stroke-width="1"/>
  <circle cx="272.6" cy="83.5" r="2.5" fill="#4f86f7" stroke="white" stroke-width="1"/>
  <circle cx="289.9" cy="73.0" r="2.5" fill="#4f86f7" stroke="white" stroke-width="1"/>
  <circle cx="307.2" cy="63.5" r="2.5" fill="#4f86f7" stroke="white" stroke-width="1"/>
  <circle cx="324.4" cy="52.1" r="2.5" fill="#4f86f7" stroke="white" stroke-width="1"/>
  <circle cx="341.7" cy="41.6" r="2.5" fill="#4f86f7" stroke="white" stroke-width="1"/>
  <circle cx="359.0" cy="32.0" r="2.5" fill="#4f86f7" stroke="white" stroke-width="1"/>
  <rect x="379" y="32" width="311" height="156" fill="#f8f9fa" rx="2"/>
  <line x1="379" y1="175.4" x2="690" y2="175.4" stroke="#e8e8e8" stroke-width="1"/>
  <line x1="379" y1="146.6" x2="690" y2="146.6" stroke="#e8e8e8" stroke-width="1"/>
  <line x1="379" y1="117.9" x2="690" y2="117.9" stroke="#e8e8e8" stroke-width="1"/>
  <line x1="379" y1="89.1" x2="690" y2="89.1" stroke="#e8e8e8" stroke-width="1"/>
  <line x1="379" y1="60.3" x2="690" y2="60.3" stroke="#e8e8e8" stroke-width="1"/>
  <line x1="379" y1="31.5" x2="690" y2="31.5" stroke="#e8e8e8" stroke-width="1"/>
  <line x1="379" y1="32" x2="379" y2="188" stroke="#bbb" stroke-width="1"/>
  <line x1="379" y1="188" x2="690" y2="188" stroke="#bbb" stroke-width="1"/>
  <text x="379.0" y="201" text-anchor="middle" font-size="8" fill="#999" font-family="monospace">2</text>
  <text x="413.6" y="201" text-anchor="middle" font-size="8" fill="#999" font-family="monospace">4</text>
  <text x="448.1" y="201" text-anchor="middle" font-size="8" fill="#999" font-family="monospace">6</text>
  <text x="482.7" y="201" text-anchor="middle" font-size="8" fill="#999" font-family="monospace">8</text>
  <text x="517.2" y="201" text-anchor="middle" font-size="8" fill="#999" font-family="monospace">10</text>
  <text x="551.8" y="201" text-anchor="middle" font-size="8" fill="#999" font-family="monospace">12</text>
  <text x="586.3" y="201" text-anchor="middle" font-size="8" fill="#999" font-family="monospace">14</text>
  <text x="620.9" y="201" text-anchor="middle" font-size="8" fill="#999" font-family="monospace">16</text>
  <text x="655.4" y="201" text-anchor="middle" font-size="8" fill="#999" font-family="monospace">18</text>
  <text x="690.0" y="201" text-anchor="middle" font-size="8" fill="#999" font-family="monospace">20</text>
  <text x="375" y="178.4" text-anchor="end" font-size="8" fill="#999" font-family="monospace">1KB</text>
  <text x="375" y="149.6" text-anchor="end" font-size="8" fill="#999" font-family="monospace">10KB</text>
  <text x="375" y="120.9" text-anchor="end" font-size="8" fill="#999" font-family="monospace">102KB</text>
  <text x="375" y="92.1" text-anchor="end" font-size="8" fill="#999" font-family="monospace">1.0MB</text>
  <text x="375" y="63.3" text-anchor="end" font-size="8" fill="#999" font-family="monospace">10MB</text>
  <text x="375" y="34.5" text-anchor="end" font-size="8" fill="#999" font-family="monospace">100MB</text>
  <text transform="translate(345,110) rotate(-90)" text-anchor="middle" font-size="9" fill="#666" font-family="sans-serif">memory</text>
  <text x="535" y="213" text-anchor="middle" font-size="9" fill="#666" font-family="sans-serif">qubits</text>
  <path d="M379.0,188.0 L396.3,179.3 L413.6,170.7 L430.8,162.0 L448.1,153.3 L465.4,144.7 L482.7,136.0 L499.9,127.3 L517.2,118.7 L534.5,110.0 L551.8,101.3 L569.1,92.7 L586.3,84.0 L603.6,75.3 L620.9,66.7 L638.2,58.0 L655.4,49.3 L672.7,40.7 L690.0,32.0" fill="none" stroke="#e05c5c" stroke-width="2" stroke-linejoin="round" stroke-linecap="round"/>
  <circle cx="379.0" cy="188.0" r="2.5" fill="#e05c5c" stroke="white" stroke-width="1"/>
  <circle cx="396.3" cy="179.3" r="2.5" fill="#e05c5c" stroke="white" stroke-width="1"/>
  <circle cx="413.6" cy="170.7" r="2.5" fill="#e05c5c" stroke="white" stroke-width="1"/>
  <circle cx="430.8" cy="162.0" r="2.5" fill="#e05c5c" stroke="white" stroke-width="1"/>
  <circle cx="448.1" cy="153.3" r="2.5" fill="#e05c5c" stroke="white" stroke-width="1"/>
  <circle cx="465.4" cy="144.7" r="2.5" fill="#e05c5c" stroke="white" stroke-width="1"/>
  <circle cx="482.7" cy="136.0" r="2.5" fill="#e05c5c" stroke="white" stroke-width="1"/>
  <circle cx="499.9" cy="127.3" r="2.5" fill="#e05c5c" stroke="white" stroke-width="1"/>
  <circle cx="517.2" cy="118.7" r="2.5" fill="#e05c5c" stroke="white" stroke-width="1"/>
  <circle cx="534.5" cy="110.0" r="2.5" fill="#e05c5c" stroke="white" stroke-width="1"/>
  <circle cx="551.8" cy="101.3" r="2.5" fill="#e05c5c" stroke="white" stroke-width="1"/>
  <circle cx="569.1" cy="92.7" r="2.5" fill="#e05c5c" stroke="white" stroke-width="1"/>
  <circle cx="586.3" cy="84.0" r="2.5" fill="#e05c5c" stroke="white" stroke-width="1"/>
  <circle cx="603.6" cy="75.3" r="2.5" fill="#e05c5c" stroke="white" stroke-width="1"/>
  <circle cx="620.9" cy="66.7" r="2.5" fill="#e05c5c" stroke="white" stroke-width="1"/>
  <circle cx="638.2" cy="58.0" r="2.5" fill="#e05c5c" stroke="white" stroke-width="1"/>
  <circle cx="655.4" cy="49.3" r="2.5" fill="#e05c5c" stroke="white" stroke-width="1"/>
  <circle cx="672.7" cy="40.7" r="2.5" fill="#e05c5c" stroke="white" stroke-width="1"/>
  <circle cx="690.0" cy="32.0" r="2.5" fill="#e05c5c" stroke="white" stroke-width="1"/>
</svg>