<svg xmlns="http://www.w3.org/2000/svg" width="500" height="215" viewBox="0 0 500 215">
<rect width="500" height="215" fill="#fff"/>
<line x1="115" y1="33" x2="189" y2="107" stroke="#94a3b8" stroke-width="2.5" stroke-dasharray="7 4"/>
<line x1="189" y1="107" x2="115" y2="181" stroke="#94a3b8" stroke-width="2.5" stroke-dasharray="7 4"/>
<line x1="115" y1="181" x2="41" y2="107" stroke="#94a3b8" stroke-width="2.5" stroke-dasharray="7 4"/>
<line x1="41" y1="107" x2="115" y2="33" stroke="#94a3b8" stroke-width="2.5" stroke-dasharray="7 4"/>
<circle cx="115" cy="33" r="20" fill="#3b82f6" stroke="#fff" stroke-width="2.5"/>
<text x="115" y="38" text-anchor="middle" font-family="ui-monospace,monospace" font-size="13" font-weight="bold" fill="#fff">0</text>
<circle cx="189" cy="107" r="20" fill="#f97316" stroke="#fff" stroke-width="2.5"/>
<text x="189" y="112" text-anchor="middle" font-family="ui-monospace,monospace" font-size="13" font-weight="bold" fill="#fff">1</text>
<circle cx="115" cy="181" r="20" fill="#3b82f6" stroke="#fff" stroke-width="2.5"/>
<text x="115" y="186" text-anchor="middle" font-family="ui-monospace,monospace" font-size="13" font-weight="bold" fill="#fff">2</text>
<circle cx="41" cy="107" r="20" fill="#f97316" stroke="#fff" stroke-width="2.5"/>
<text x="41" y="112" text-anchor="middle" font-family="ui-monospace,monospace" font-size="13" font-weight="bold" fill="#fff">3</text>
<line x1="218" y1="12" x2="218" y2="203" stroke="#f1f5f9" stroke-width="1"/>
<text x="360" y="18" text-anchor="middle" font-family="ui-sans-serif,sans-serif" font-size="11" fill="#94a3b8">measurement outcomes (all 16 states)</text>
<rect x="232" y="166.04879912241887" width="14" height="8.951200877581137" rx="2" fill="#e2e8f0"/>
<rect x="248" y="168.31702012109744" width="14" height="6.682979878902555" rx="2" fill="#e2e8f0"/>
<rect x="264" y="168.31702012109744" width="14" height="6.682979878902547" rx="2" fill="#e2e8f0"/>
<rect x="280" y="153.72473404797316" width="14" height="21.27526595202684" rx="2" fill="#e2e8f0"/>
<rect x="296" y="168.31702012109744" width="14" height="6.682979878902551" rx="2" fill="#e2e8f0"/>
<rect x="312" y="87" width="14" height="88" rx="2" fill="#3b82f6"/>
<text x="319" y="82" text-anchor="middle" font-family="ui-sans-serif,sans-serif" font-size="10" font-weight="600" fill="#2563eb">26%</text>
<text x="319" y="189" text-anchor="middle" font-family="ui-monospace,monospace" font-size="9" fill="#2563eb" transform="rotate(-45 319 189)">0101</text>
<rect x="328" y="153.72473404797316" width="14" height="21.275265952026853" rx="2" fill="#e2e8f0"/>
<rect x="344" y="168.31702012109744" width="14" height="6.682979878902555" rx="2" fill="#e2e8f0"/>
<rect x="360" y="168.31702012109744" width="14" height="6.682979878902555" rx="2" fill="#e2e8f0"/>
<rect x="376" y="153.72473404797316" width="14" height="21.275265952026853" rx="2" fill="#e2e8f0"/>
<rect x="392" y="87" width="14" height="88" rx="2" fill="#3b82f6"/>
<text x="399" y="82" text-anchor="middle" font-family="ui-sans-serif,sans-serif" font-size="10" font-weight="600" fill="#2563eb">26%</text>
<text x="399" y="189" text-anchor="middle" font-family="ui-monospace,monospace" font-size="9" fill="#2563eb" transform="rotate(-45 399 189)">1010</text>
<rect x="408" y="168.31702012109744" width="14" height="6.682979878902551" rx="2" fill="#e2e8f0"/>
<rect x="424" y="153.72473404797316" width="14" height="21.27526595202684" rx="2" fill="#e2e8f0"/>
<rect x="440" y="168.31702012109744" width="14" height="6.682979878902547" rx="2" fill="#e2e8f0"/>
<rect x="456" y="168.31702012109744" width="14" height="6.682979878902555" rx="2" fill="#e2e8f0"/>
<rect x="472" y="166.04879912241887" width="14" height="8.951200877581137" rx="2" fill="#e2e8f0"/>
<line x1="229" y1="175" x2="489" y2="175" stroke="#e2e8f0" stroke-width="1"/>
<circle cx="34" cy="175" r="7" fill="#3b82f6"/>
<text x="46" y="179" font-family="ui-sans-serif,sans-serif" font-size="11" fill="#475569">{0, 2}</text>
<circle cx="34" cy="193" r="7" fill="#f97316"/>
<text x="46" y="197" font-family="ui-sans-serif,sans-serif" font-size="11" fill="#475569">{1, 3}</text>
</svg>